<svg xmlns="http://www.w3.org/2000/svg" width="1920" height="1080" viewBox="0 0 1920 1080" fill="none">
  <g opacity=".82" stroke-linecap="round">
    <ellipse cx="1218" cy="485" rx="672" ry="184" stroke="url(#orbitPathFieldBronze)" stroke-width="1.4" transform="rotate(-10 1218 485)" />
    <ellipse cx="1238" cy="482" rx="518" ry="142" stroke="url(#orbitPathFieldSoft)" stroke-width="1.1" transform="rotate(-18 1238 482)" />
    <ellipse cx="1210" cy="476" rx="324" ry="92" stroke="url(#orbitPathFieldSoft)" stroke-width=".9" transform="rotate(-8 1210 476)" />
    <ellipse cx="1198" cy="468" rx="210" ry="62" stroke="url(#orbitPathFieldPale)" stroke-width=".8" transform="rotate(-14 1198 468)" />
    <ellipse cx="1200" cy="466" rx="112" ry="34" stroke="url(#orbitPathFieldPale)" stroke-width=".7" transform="rotate(-20 1200 466)" />
    <path d="M74 488C132 260 315 156 444 211c109 47 35 210-72 239-82 22-177-16-236-80" stroke="url(#orbitPathFieldLeftLoop)" stroke-width="1.1" opacity=".55" />
    <path d="M722 720c183 93 529 104 828-91 105-68 192-155 238-247" stroke="url(#orbitPathFieldBronze)" stroke-width="1.1" opacity=".7" />
    <path d="M784 612c121-225 388-353 765-387 105-9 218-5 340 11" stroke="url(#orbitPathFieldSoft)" stroke-width="1" opacity=".8" />
  </g>
  <defs>
    <linearGradient id="orbitPathFieldBronze" x1="457" x2="1845" y1="570" y2="371" gradientUnits="userSpaceOnUse">
      <stop stop-color="#d9b58f" stop-opacity=".12" />
      <stop offset=".35" stop-color="#ba9d85" stop-opacity=".86" />
      <stop offset=".72" stop-color="#8f806f" stop-opacity=".54" />
      <stop offset="1" stop-color="#fff7ed" stop-opacity=".08" />
    </linearGradient>
    <linearGradient id="orbitPathFieldSoft" x1="632" x2="1702" y1="514" y2="343" gradientUnits="userSpaceOnUse">
      <stop stop-color="#f2dcc3" stop-opacity=".08" />
      <stop offset=".4" stop-color="#b0a291" stop-opacity=".62" />
      <stop offset=".75" stop-color="#988a78" stop-opacity=".48" />
      <stop offset="1" stop-color="#fff7ed" stop-opacity=".08" />
    </linearGradient>
    <linearGradient id="orbitPathFieldPale" x1="994" x2="1380" y1="484" y2="424" gradientUnits="userSpaceOnUse">
      <stop stop-color="#fffaf3" stop-opacity=".12" />
      <stop offset=".48" stop-color="#cfbda7" stop-opacity=".55" />
      <stop offset="1" stop-color="#fff7ed" stop-opacity=".04" />
    </linearGradient>
    <linearGradient id="orbitPathFieldLeftLoop" x1="78" x2="477" y1="393" y2="274" gradientUnits="userSpaceOnUse">
      <stop stop-color="#ba9d85" stop-opacity=".5" />
      <stop offset="1" stop-color="#f6dfc7" stop-opacity=".18" />
    </linearGradient>
  </defs>
</svg>
